<?xml version="1.0" standalone="no"?>
<!DOCTYPE svg PUBLIC "-//W3C//DTD SVG 20010904//EN"
 "http://www.w3.org/TR/2001/REC-SVG-20010904/DTD/svg10.dtd">
<svg version="1.0" xmlns="http://www.w3.org/2000/svg"
 width="16.000000pt" height="16.000000pt" viewBox="0 0 16.000000 16.000000"
 preserveAspectRatio="xMidYMid meet">
<metadata>
Created by potrace 1.11, written by Peter Selinger 2001-2013
</metadata>
<g transform="translate(0.000000,16.000000) scale(0.006154,-0.006154)"
fill="#000000" stroke="none">
<path d="M0 1300 l0 -1300 1300 0 1300 0 0 1300 0 1300 -1300 0 -1300 0 0
-1300z m1849 -73 c184 -573 338 -1052 342 -1064 l9 -23 -218 0 -217 0 -49 177
c-27 97 -56 199 -63 225 l-15 48 -318 0 -319 0 -10 -37 c-6 -21 -34 -122 -63
-225 l-53 -188 -217 0 -217 0 14 43 c8 23 163 496 345 1052 181 556 332 1016
335 1023 3 9 51 12 192 12 l188 0 334 -1043z"/>
<path d="M1213 1327 l-110 -387 218 0 c121 0 219 2 219 5 0 10 -200 730 -208
749 -6 14 -41 -95 -119 -367z"/>
</g>
</svg>
